<svg xmlns="http://www.w3.org/2000/svg" width="512" height="512" version="1"><path fill="#000" d="M177 0H59C27 0 0 27 0 59v118c0 32 27 59 59 59h118c32 0 59-27 59-59V59c0-32-27-59-59-59zm19 177c0 10-9 19-19 19H59c-10 0-19-9-19-19V59c0-10 9-19 19-19h118c10 0 19 9 19 19v118zM452 0H336c-33 0-60 27-60 60v116c0 33 27 60 60 60h116c33 0 60-27 60-60V60c0-33-27-60-60-60zm20 176c0 11-9 20-20 20H336c-11 0-20-9-20-20V60c0-11 9-20 20-20h116c11 0 20 9 20 20v116zM177 276H59c-32 0-59 27-59 59v118c0 32 27 59 59 59h118c32 0 59-27 59-59V335c0-32-27-59-59-59zm19 177c0 10-9 19-19 19H59c-10 0-19-9-19-19V335c0-10 9-19 19-19h118c10 0 19 9 19 19v118zM452 276H336c-33 0-60 27-60 60v116c0 33 27 60 60 60h116c33 0 60-27 60-60V336c0-33-27-60-60-60zm20 176c0 11-9 20-20 20H336c-11 0-20-9-20-20V336c0-11 9-20 20-20h116c11 0 20 9 20 20v116z"/></svg>