<svg id="Layer_1" xmlns="http://www.w3.org/2000/svg" xmlns:xlink="http://www.w3.org/1999/xlink" viewBox="0 0 590 76"><style>.st0{clip-path:url(#XMLID_8_)}.st1{fill:#fff}.st2,.st3,.st4{fill-rule:evenodd;clip-rule:evenodd;fill:#ec6c00}.st3,.st4{fill:#fff}.st4{fill:#4f4f4e}</style><g id="XMLID_1_"><g id="XMLID_2_"><defs><path id="XMLID_24_" d="M0 0h590v76H0z"/></defs><clipPath id="XMLID_8_"><use xlink:href="#XMLID_24_" overflow="visible"/></clipPath><g id="XMLID_3_" class="st0"><path id="XMLID_4_" class="st1" d="M0 0h590v76H0z"/></g><g id="XMLID_5_" class="st0"><path id="XMLID_60_" class="st2" d="M107.5 5.5c1.8-.3 3.7-.5 5.6-.5h.4c6 0 11.9 1.6 17.1 4.6 6.1 3.5 11 9 13.8 15.4 1.9 4.2 3 8.9 2.9 13.5.3 10.1-4.4 20.1-12.1 26.5-4.7 4-10.5 6.6-16.6 7.5-2.6.4-5.2.3-7.8.3-7.2-.5-14.1-3.4-19.6-8.1-5.2-4.4-9-10.4-10.7-17-.5-1.9-.8-3.8-1-5.7 0-1-.1-2-.1-3v-.6c0-1.2.1-2.4.2-3.6.9-7.4 4.3-14.4 9.5-19.6 5-5.1 11.5-8.5 18.4-9.7z"/><path id="XMLID_59_" class="st3" d="M110.6 11.2c6-.6 12.2.8 17.4 4 6.1 3.7 10.7 9.9 12.4 16.8 1.6 6 1 12.5-1.5 18.1-2.5 5.7-7 10.6-12.5 13.5-4.8 2.6-10.4 3.7-15.9 3.1-7.4-.7-14.4-4.5-19.1-10.4C87.2 51 85 43.9 85.5 37c.4-5.9 2.8-11.7 6.6-16.1 4.6-5.5 11.4-9 18.5-9.7z"/><path id="XMLID_58_" class="st2" d="M97.8 24.3c3.2-.5 6.5 1.7 7.2 4.9.8 3.1-1.2 6.7-4.3 7.5-1.8.5-3.8.3-5.4-.7-2.3-1.4-3.4-4.4-2.7-6.9.6-2.5 2.7-4.5 5.2-4.8z"/><path id="XMLID_57_" class="st2" d="M126.4 24.3c3.3-.7 6.8 1.8 7.4 5.1.9 3.7-2.3 7.7-6.1 7.6-3.4.2-6.5-2.8-6.5-6.2-.3-3.1 2.1-6 5.2-6.5z"/><path id="XMLID_56_" class="st4" d="M292.7 46.1c-.8 0-1.6.1-2.5-.1-.5-.2-.6-.8-.6-1.2V20.2c0-1.1.1-2.4-.7-3.3-.8-1.1-2.4-1.1-3.6-1.1-1.8.1-3.6-.1-5.3.1v5.3c1 0 1.9-.1 2.9.2.3.8.2 1.6.3 2.4v23.7c0 .9 0 1.9.5 2.8.4.7 1.2 1 1.9 1.2h7.1v-5.4z"/><path id="XMLID_53_" class="st4" d="M180.6 41.6c-.4 1.5-1.2 2.9-2.4 3.9-1.6 1.3-3.9 1.7-5.9.9-1.5-.6-2.7-1.9-3.4-3.4-1-2.2-1.1-4.8-.5-7.2.5-2 1.8-3.9 3.8-4.6 1.9-.7 4.1-.5 5.7.7 1.2.9 2.1 2.3 2.5 3.8.6 1.9.6 4 .2 5.9zm2-14.2c-2.5-1.9-5.9-2.5-9-1.9-2.4.5-4.6 1.8-5.9 3.9 0-.8.1-1.7-.4-2.4-.6-.9-1.7-1.1-2.7-1.1h-5.9v5.5c.8 0 1.7-.1 2.5.1.6.2.5.9.6 1.4V61c-.1.3.1.8.5.7h5.9c0-4.3.1-8.6-.1-12.9 1.7 2.2 4.5 3.5 7.3 3.4 3.5.2 7-1.5 9.1-4.4 2.6-3.4 3.1-7.8 2.5-11.9-.3-3.3-1.8-6.5-4.4-8.5z"/><path id="XMLID_50_" class="st2" d="M207.2 35.4h-9.9c.4-1.8 1.5-3.6 3.2-4.5 1.8-.9 4.2-1.1 5.9.2 1.3 1 1.9 2.6 2.1 4.1-.4.2-.9.2-1.3.2zm-3.4-10.1c-3.7-.1-7.4 1.3-9.9 4.1-2.6 2.9-3.6 7-3.3 10.8.3 2.7 1.4 5.4 3.2 7.4 2.6 3 6.5 4.6 10.5 4.5 3.8.1 7.6-1.3 10.5-3.8-.9-1.5-1.8-2.9-2.7-4.4-1.7 1.3-3.6 2.4-5.7 2.7-2.5.4-5.3-.2-7.1-2.1-1.3-1.2-1.9-3-2.1-4.7h17.7c.5-3.9-.2-8.1-2.9-11.1-2-2.3-5.2-3.5-8.2-3.4z"/><path id="XMLID_47_" class="st4" d="M238.4 44.2c-2.5 2.9-7.3 3.4-10.3 1-3-2.3-3.8-6.8-2.2-10.1 1.1-2.3 3.4-4 5.9-4.2 2.2-.2 4.5.5 6 2 3.2 2.8 3.3 8.1.6 11.3zm4.7-14.8c-4.9-5-13.4-5.5-19-1.5-3 2.1-4.9 5.5-5.4 9.1-.1 1.1-.1 2.3 0 3.4.4 2.6 1.4 5.2 3.2 7.2 2.7 3 6.7 4.6 10.6 4.5 3.3.1 6.7-.9 9.3-3 3.2-2.5 5-6.5 4.9-10.5.1-3.4-1.3-6.7-3.6-9.2z"/><path id="XMLID_44_" class="st4" d="M270.5 43.5c-.7 1.3-1.8 2.3-3.2 2.9-2 .8-4.4.5-6-.9-1.5-1.3-2.3-3.2-2.5-5.1-.2-2.1-.1-4.3.9-6.2.8-1.5 2.2-2.7 3.8-3.1 1.7-.4 3.6-.2 5 .8 1.6 1.2 2.5 3.1 2.8 5 .4 2.2.3 4.6-.8 6.6zm2.4-16.3c-2.5-1.8-5.7-2.2-8.6-1.7-2.4.5-4.6 1.8-5.9 3.9 0-.8.1-1.7-.4-2.4-.6-.9-1.7-1.1-2.7-1.1h-5.9v5.5c.8 0 1.7-.1 2.5.1.6.2.5.9.5 1.4v28.8h6.4c0-4.3.1-8.6-.1-12.9 1 1.2 2.3 2.2 3.8 2.8 1.6.7 3.4.7 5.2.6 3.5-.3 6.7-2.6 8.4-5.7 1.8-3.3 2.2-7.2 1.6-10.8-.4-3.4-2-6.6-4.8-8.5z"/><path id="XMLID_41_" class="st4" d="M302.3 35.4c.4-1.8 1.4-3.5 3-4.4 1.8-1 4.2-1.2 5.9 0 1.4 1 2.1 2.7 2.2 4.4h-11.1zm8.9-9.9c-3.3-.6-6.9-.1-9.8 1.6-2.7 1.6-4.6 4.4-5.4 7.5-.4 1.9-.7 3.9-.4 5.9.4 3.6 2.3 7 5.3 9.1 2.5 1.8 5.6 2.6 8.7 2.5 3.7-.1 7.3-1.5 10-3.9-.9-1.5-1.8-2.9-2.7-4.4-1.6 1.3-3.5 2.3-5.5 2.7-2.5.5-5.3-.1-7.2-1.9-1.3-1.2-2-3-2.2-4.8h17.8c.3-3.1.1-6.3-1.5-9.1-1.4-2.7-4.1-4.6-7.1-5.2z"/><path id="XMLID_38_" class="st4" d="M346.1 40.4c-.2 3-1.4 6.1-3.9 8-2.7 2.1-6.8 2.3-9.6.2-2.5-1.9-3.7-5-4.1-8-.2-2.9 0-6 1.5-8.6 1.1-2.1 3.2-3.7 5.6-4.1 2.2-.4 4.5-.1 6.4 1.2 1.9 1.3 3.1 3.4 3.7 5.6.5 2 .5 3.9.4 5.7zM342.6 27c-2.1-1.2-4.6-1.4-7-1.1-3 .5-5.8 2.5-7 5.3 0-1 .1-2-.1-3-.1-.9-.9-1.7-1.8-1.8-1.2-.2-2.4-.1-3.6-.1v1.9c1 0 1.9 0 2.9.1.7 1 .3 2.2.4 3.3.1 4.5-.1 9.1.1 13.6-.2 2 .1 4-.1 6 .1 2.2-.1 4.5 0 6.7.1 1.2-.2 2.5.1 3.7h2.1V46.7c.9 2 2.5 3.7 4.5 4.6 1.8.9 3.8.9 5.8.7 2.6-.3 5.1-1.7 6.7-3.8 2.7-3.4 3.3-8 2.7-12.2-.5-3.5-2.4-7.2-5.7-9z"/><path id="XMLID_35_" class="st4" d="M355.3 36.6c.3-1.6.8-3.2 1.8-4.6 1.4-2.2 3.8-3.7 6.4-4.1 2-.2 4.2-.1 6 1 2.6 1.6 3.7 4.8 3.8 7.7-6 0-12 .1-18 0zm11.8-10.7c-3.2-.4-6.6.2-9.2 2.2-3.4 2.4-5.1 6.7-5 10.7-.1 3.7 1.3 7.6 4.1 10.1 3.1 2.9 7.8 3.9 11.9 2.9 2.2-.5 4.2-1.6 6-3.1-.4-.6-.8-1.2-1.1-1.8-3.6 3.4-9.4 4.2-13.6 1.6-3.4-2-5.1-6-5-9.8h20.2c.5-3.5-.4-7.2-2.8-9.9-1.4-1.6-3.4-2.5-5.5-2.9z"/><path id="XMLID_34_" class="st4" d="M426.4 46.1c-.3-.1-2.1 0-2.2 0-.5 0-.8-.6-.8-1V34.7c0-1.9-.3-3.9-1.2-5.6-.9-1.8-2.7-3-4.6-3.5-2.9-.7-6.2-.4-8.7 1.3-1.4.9-2.5 2.1-3.3 3.5.3-2.9.1-5.9.1-8.8-.1-1.5.3-3.2-.6-4.6-.6-1-1.9-1.1-3-1.2h-5.9c-.3 1.8-.1 3.7-.1 5.5 1 0 2-.1 2.9.2.1.4.2.8.2 1.3v28.9h6.4V39.4c0-2 .5-3.9 1.8-5.5 1.4-1.7 3.5-2.8 5.7-2.7 1.1 0 2.3.4 3 1.3.7 1 .9 2.4.9 3.6v11.7c0 .9 0 1.9.6 2.7.5.8 1.5 1.1 2.4 1.1h6.5c.3 0 0-4.9-.1-5.5.1 0 .1 0 0 0z"/><path id="XMLID_31_" class="st4" d="M449.1 43.9c-1.7 2.1-4.5 3.2-7.2 2.7-2.3-.3-4.4-1.9-5.5-4-1-2.1-1.1-4.5-.4-6.7.9-2.7 3.4-4.7 6.2-5.1 2.2-.3 4.6.5 6.2 2 2.9 2.8 3.2 7.9.7 11.1zm2.4-16.2c-4.1-2.7-9.5-3.2-14.1-1.4-3.2 1.3-6 3.9-7.3 7.1-1.8 4.3-1.2 9.7 1.7 13.4 2.6 3.4 7 5.3 11.3 5.3 1.6 0 3.1-.2 4.7-.6 2.3-.8 4.6-2.1 6.2-3.9 3.3-3.6 4.1-9 2.6-13.5-1-2.6-2.9-4.8-5.1-6.4z"/><path id="XMLID_30_" class="st4" d="M510.6 25.6c-4.2-.7-8.3 2.5-9.3 6.5-.1-1.5.1-3-.2-4.5-.4-1.2-1.7-1.8-2.8-1.8H492v5.5c1 0 2-.2 2.9.3.1.5.2 1 .2 1.5v18.5h6.3v-5.8c0-2.6-.1-5.2.4-7.8.5-2.2 1.8-4.2 3.8-5.2 1.5-.8 3.2-.9 4.9-.8v-.1-5.2l.1-1.1z"/><path id="XMLID_29_" class="st4" d="M489.9 46.1c-.8 0-1.7.1-2.5 0-.5-.2-.6-.8-.6-1.3v-19h-6.4v11.1c.1 2.2-.4 4.6-1.7 6.4-1.5 2.3-4.5 3.4-7.1 2.6-1.4-.4-2.1-1.9-2.2-3.3-.2-1.7-.1-3.4-.2-5.1v-8.7c0-.7-.1-1.5-.6-2.1-.6-.7-1.6-1-2.5-1h-6.3v5.5c1 0 2-.1 3 .3.3 1 .2 2.1.2 3.1v8.1c0 2.3.4 4.7 1.9 6.6 1.3 1.7 3.3 2.6 5.4 2.7 1.7.1 3.5.1 5.1-.5 2.3-.8 4.3-2.6 5.4-4.8 0 1.1-.2 2.2.3 3.2.5 1.1 1.7 1.5 2.8 1.5h6.2c-.2-1.6-.1-3.5-.2-5.3z"/><path id="XMLID_28_" class="st4" d="M388.7 27.3c-2 1.3-3.3 3.5-4 5.8 0-1.5.1-3.1 0-4.6-.1-.8-.6-1.6-1.4-1.9-1.3-.3-2.6-.2-3.9-.2v2h2.4c.6.1.9.7.8 1.3v22h2.1V41c0-2.5.4-5 1.4-7.2.8-1.9 2.1-3.6 3.9-4.6 1.3-.7 2.7-.8 4.1-.7v-2.1c-1.8-.4-3.8-.2-5.4.9z"/></g></g></g><path id="XMLID_6_" class="st4" d="M326.3 28.1h.5v33.6h-.5z"/></svg>