<?xml version="1.0" encoding="UTF-8"?>
<!-- Generator: Adobe Illustrator 19.0.0, SVG Export Plug-In . SVG Version: 6.00 Build 0)  -->
<!-- Copyright ©2016 www.LanceBase.com  -->
<svg version="1.1" id="Layer_1" xmlns="http://www.w3.org/2000/svg" xmlns:xlink="http://www.w3.org/1999/xlink" x="0px" y="0px" viewBox="0 0 590 76" style="enable-background:new 0 0 590 76;" xml:space="preserve">
  <style type="text/css">.st0{clip-path:url(#XMLID_8_);}
    .st1{fill:#FFFFFF;}
    .st2{fill-rule:evenodd;clip-rule:evenodd;fill:#EC6C00;}
    .st3{fill-rule:evenodd;clip-rule:evenodd;fill:#FFFFFF;}
    .st4{fill-rule:evenodd;clip-rule:evenodd;fill:#4F4F4E;}</style>
  <g id="XMLID_1_">
    <g id="XMLID_2_">
      <defs>
        <rect id="XMLID_24_" width="590" height="76"/>
      </defs>
      <clipPath id="XMLID_8_">
        <use xlink:href="#XMLID_24_" style="overflow:visible;"/>
      </clipPath>
      <g id="XMLID_3_" class="st0">
        <rect id="XMLID_4_" class="st1" width="590" height="76"/>
      </g>
      <g id="XMLID_5_" class="st0">
        <path id="XMLID_60_" class="st2" d="M107.5,5.5c1.8-0.3,3.7-0.5,5.6-0.5h0.4c6,0,11.9,1.6,17.1,4.6c6.1,3.5,11,9,13.8,15.4     c1.9,4.2,3,8.9,2.9,13.5c0.3,10.1-4.4,20.1-12.1,26.5c-4.7,4-10.5,6.6-16.6,7.5c-2.6,0.4-5.2,0.3-7.8,0.3     c-7.2-0.5-14.1-3.4-19.6-8.1c-5.2-4.4-9-10.4-10.7-17c-0.5-1.9-0.8-3.8-1-5.7c0-1-0.1-2-0.1-3V39v-0.5v-0.1     c0-1.2,0.1-2.4,0.2-3.6c0.9-7.4,4.3-14.4,9.5-19.6C94.1,10.1,100.6,6.7,107.5,5.5z"/>
        <path id="XMLID_59_" class="st3" d="M110.6,11.2c6-0.6,12.2,0.8,17.4,4c6.1,3.7,10.7,9.9,12.4,16.8c1.6,6,1,12.5-1.5,18.1     c-2.5,5.7-7,10.6-12.5,13.5c-4.8,2.6-10.4,3.7-15.9,3.1c-7.4-0.7-14.4-4.5-19.1-10.4C87.2,51,85,43.9,85.5,37     c0.4-5.9,2.8-11.7,6.6-16.1C96.7,15.4,103.5,11.9,110.6,11.2L110.6,11.2z"/>
        <path id="XMLID_58_" class="st2" d="M97.8,24.3c3.2-0.5,6.5,1.7,7.2,4.9c0.8,3.1-1.2,6.7-4.3,7.5c-1.8,0.5-3.8,0.3-5.4-0.7     c-2.3-1.4-3.4-4.4-2.7-6.9C93.2,26.6,95.3,24.6,97.8,24.3L97.8,24.3z"/>
        <path id="XMLID_57_" class="st2" d="M126.4,24.3c3.3-0.7,6.8,1.8,7.4,5.1c0.9,3.7-2.3,7.7-6.1,7.6c-3.4,0.2-6.5-2.8-6.5-6.2     C120.9,27.7,123.3,24.8,126.4,24.3L126.4,24.3z"/>
        <path id="XMLID_56_" class="st4" d="M292.7,46.1c-0.8,0-1.6,0.1-2.5-0.1c-0.5-0.2-0.6-0.8-0.6-1.2c0-8.2,0-16.4,0-24.6     c0-1.1,0.1-2.4-0.7-3.3c-0.8-1.1-2.4-1.1-3.6-1.1c-1.8,0.1-3.6-0.1-5.3,0.1c0,0.4,0,0.9,0,1.3c0,1.3,0,2.7,0,4     c1,0,1.9-0.1,2.9,0.2c0.3,0.8,0.2,1.6,0.3,2.4c0,7.9,0,15.8,0,23.7c0,0.9,0,1.9,0.5,2.8c0.4,0.7,1.2,1,1.9,1.2c2.4,0,4.7,0,7.1,0     C292.7,49.8,292.7,47.9,292.7,46.1z"/>
        <path id="XMLID_53_" class="st4" d="M180.6,41.6c-0.4,1.5-1.2,2.9-2.4,3.9c-1.6,1.3-3.9,1.7-5.9,0.9c-1.5-0.6-2.7-1.9-3.4-3.4     c-1-2.2-1.1-4.8-0.5-7.2c0.5-2,1.8-3.9,3.8-4.6c1.9-0.7,4.1-0.5,5.7,0.7c1.2,0.9,2.1,2.3,2.5,3.8C181,37.6,181,39.7,180.6,41.6     L180.6,41.6z M182.6,27.4c-2.5-1.9-5.9-2.5-9-1.9c-2.4,0.5-4.6,1.8-5.9,3.9c0-0.8,0.1-1.7-0.4-2.4c-0.6-0.9-1.7-1.1-2.7-1.1     c-2,0-3.9,0-5.9,0c0,1.8,0,3.6,0,5.5c0.8,0,1.7-0.1,2.5,0.1c0.6,0.2,0.5,0.9,0.6,1.4c0,9.4,0,18.7,0,28.1     c-0.1,0.3,0.1,0.8,0.5,0.7c2,0,3.9,0,5.9,0c0-4.3,0.1-8.6-0.1-12.9c1.7,2.2,4.5,3.5,7.3,3.4c3.5,0.2,7-1.5,9.1-4.4     c2.6-3.4,3.1-7.8,2.5-11.9C186.7,32.6,185.2,29.4,182.6,27.4z"/>
        <path id="XMLID_50_" class="st2" d="M207.2,35.4c-3.3,0-6.6,0-9.9,0c0.4-1.8,1.5-3.6,3.2-4.5c1.8-0.9,4.2-1.1,5.9,0.2     c1.3,1,1.9,2.6,2.1,4.1C208.1,35.4,207.6,35.4,207.2,35.4L207.2,35.4z M203.8,25.3c-3.7-0.1-7.4,1.3-9.9,4.1     c-2.6,2.9-3.6,7-3.3,10.8c0.3,2.7,1.4,5.4,3.2,7.4c2.6,3,6.5,4.6,10.5,4.5c3.8,0.1,7.6-1.3,10.5-3.8c-0.9-1.5-1.8-2.9-2.7-4.4     c-1.7,1.3-3.6,2.4-5.7,2.7c-2.5,0.4-5.3-0.2-7.1-2.1c-1.3-1.2-1.9-3-2.1-4.7c5.9,0,11.8,0,17.7,0c0.5-3.9-0.2-8.1-2.9-11.1     C210,26.4,206.8,25.2,203.8,25.3z"/>
        <path id="XMLID_47_" class="st4" d="M238.4,44.2c-2.5,2.9-7.3,3.4-10.3,1c-3-2.3-3.8-6.8-2.2-10.1c1.1-2.3,3.4-4,5.9-4.2     c2.2-0.2,4.5,0.5,6,2C241,35.7,241.1,41,238.4,44.2L238.4,44.2z M243.1,29.4c-4.9-5-13.4-5.5-19-1.5c-3,2.1-4.9,5.5-5.4,9.1     c-0.1,1.1-0.1,2.3,0,3.4c0.4,2.6,1.4,5.2,3.2,7.2c2.7,3,6.7,4.6,10.6,4.5c3.3,0.1,6.7-0.9,9.3-3c3.2-2.5,5-6.5,4.9-10.5     C246.8,35.2,245.4,31.9,243.1,29.4z"/>
        <path id="XMLID_44_" class="st4" d="M270.5,43.5c-0.7,1.3-1.8,2.3-3.2,2.9c-2,0.8-4.4,0.5-6-0.9c-1.5-1.3-2.3-3.2-2.5-5.1     c-0.2-2.1-0.1-4.3,0.9-6.2c0.8-1.5,2.2-2.7,3.8-3.1c1.7-0.4,3.6-0.2,5,0.8c1.6,1.2,2.5,3.1,2.8,5     C271.7,39.1,271.6,41.5,270.5,43.5L270.5,43.5z M272.9,27.2c-2.5-1.8-5.7-2.2-8.6-1.7c-2.4,0.5-4.6,1.8-5.9,3.9     c0-0.8,0.1-1.7-0.4-2.4c-0.6-0.9-1.7-1.1-2.7-1.1c-2,0-3.9,0-5.9,0c0,1.8,0,3.6,0,5.5c0.8,0,1.7-0.1,2.5,0.1     c0.6,0.2,0.5,0.9,0.5,1.4c0,9.6,0,19.2,0,28.8c2.1,0,4.3,0,6.4,0c0-4.3,0.1-8.6-0.1-12.9c1,1.2,2.3,2.2,3.8,2.8     c1.6,0.7,3.4,0.7,5.2,0.6c3.5-0.3,6.7-2.6,8.4-5.7c1.8-3.3,2.2-7.2,1.6-10.8C277.3,32.3,275.7,29.1,272.9,27.2z"/>
        <path id="XMLID_41_" class="st4" d="M302.3,35.4c0.4-1.8,1.4-3.5,3-4.4c1.8-1,4.2-1.2,5.9,0c1.4,1,2.1,2.7,2.2,4.4     C309.7,35.4,306,35.4,302.3,35.4L302.3,35.4z M311.2,25.5c-3.3-0.6-6.9-0.1-9.8,1.6c-2.7,1.6-4.6,4.4-5.4,7.5     c-0.4,1.9-0.7,3.9-0.4,5.9c0.4,3.6,2.3,7,5.3,9.1c2.5,1.8,5.6,2.6,8.7,2.5c3.7-0.1,7.3-1.5,10-3.9c-0.9-1.5-1.8-2.9-2.7-4.4     c-1.6,1.3-3.5,2.3-5.5,2.7c-2.5,0.5-5.3-0.1-7.2-1.9c-1.3-1.2-2-3-2.2-4.8c5.9,0,11.8,0,17.8,0c0.3-3.1,0.1-6.3-1.5-9.1     C316.9,28,314.2,26.1,311.2,25.5z"/>
        <path id="XMLID_38_" class="st4" d="M346.1,40.4c-0.2,3-1.4,6.1-3.9,8c-2.7,2.1-6.8,2.3-9.6,0.2c-2.5-1.9-3.7-5-4.1-8     c-0.2-2.9,0-6,1.5-8.6c1.1-2.1,3.2-3.7,5.6-4.1c2.2-0.4,4.5-0.1,6.4,1.2c1.9,1.3,3.1,3.4,3.7,5.6     C346.2,36.7,346.2,38.6,346.1,40.4L346.1,40.4z M342.6,27c-2.1-1.2-4.6-1.4-7-1.1c-3,0.5-5.8,2.5-7,5.3c0-1,0.1-2-0.1-3     c-0.1-0.9-0.9-1.7-1.8-1.8c-1.2-0.2-2.4-0.1-3.6-0.1c0,0.6,0,1.3,0,1.9c1,0,1.9,0,2.9,0.1c0.7,1,0.3,2.2,0.4,3.3     c0.1,4.5-0.1,9.1,0.1,13.6c-0.2,2,0.1,4-0.1,6c0.1,2.2-0.1,4.5,0,6.7c0.1,1.2-0.2,2.5,0.1,3.7c0.7,0,1.4,0,2.1,0c0-5,0-10,0-14.9     c0.9,2,2.5,3.7,4.5,4.6c1.8,0.9,3.8,0.9,5.8,0.7c2.6-0.3,5.1-1.7,6.7-3.8c2.7-3.4,3.3-8,2.7-12.2C347.8,32.5,345.9,28.8,342.6,27     z"/>
        <path id="XMLID_35_" class="st4" d="M355.3,36.6c0.3-1.6,0.8-3.2,1.8-4.6c1.4-2.2,3.8-3.7,6.4-4.1c2-0.2,4.2-0.1,6,1     c2.6,1.6,3.7,4.8,3.8,7.7C367.3,36.6,361.3,36.7,355.3,36.6L355.3,36.6z M367.1,25.9c-3.2-0.4-6.6,0.2-9.2,2.2     c-3.4,2.4-5.1,6.7-5,10.7c-0.1,3.7,1.3,7.6,4.1,10.1c3.1,2.9,7.8,3.9,11.9,2.9c2.2-0.5,4.2-1.6,6-3.1c-0.4-0.6-0.8-1.2-1.1-1.8     c-3.6,3.4-9.4,4.2-13.6,1.6c-3.4-2-5.1-6-5-9.8c6.7,0,13.4,0,20.2,0c0.5-3.5-0.4-7.2-2.8-9.9C371.2,27.2,369.2,26.3,367.1,25.9z"/>
        <path id="XMLID_34_" class="st4" d="M426.4,46.1c-0.3-0.1-2.1,0-2.2,0c-0.5,0-0.8-0.6-0.8-1c0-3.5,0-6.9,0-10.4     c0-1.9-0.3-3.9-1.2-5.6c-0.9-1.8-2.7-3-4.6-3.5c-2.9-0.7-6.2-0.4-8.7,1.3c-1.4,0.9-2.5,2.1-3.3,3.5c0.3-2.9,0.1-5.9,0.1-8.8     c-0.1-1.5,0.3-3.2-0.6-4.6c-0.6-1-1.9-1.1-3-1.2c-2,0-3.9,0-5.9,0c-0.3,1.8-0.1,3.7-0.1,5.5c1,0,2-0.1,2.9,0.2     c0.1,0.4,0.2,0.8,0.2,1.3c0,9.6,0,19.2,0,28.9c2.1,0,4.3,0,6.4,0c0-4.1,0-8.2,0-12.3c0-2,0.5-3.9,1.8-5.5     c1.4-1.7,3.5-2.8,5.7-2.7c1.1,0,2.3,0.4,3,1.3c0.7,1,0.9,2.4,0.9,3.6c0,3.9,0,7.8,0,11.7c0,0.9,0,1.9,0.6,2.7     c0.5,0.8,1.5,1.1,2.4,1.1c2.2,0,4.3,0,6.5,0C426.8,51.6,426.5,46.7,426.4,46.1C426.5,46.1,426.5,46.1,426.4,46.1z"/>
        <path id="XMLID_31_" class="st4" d="M449.1,43.9c-1.7,2.1-4.5,3.2-7.2,2.7c-2.3-0.3-4.4-1.9-5.5-4c-1-2.1-1.1-4.5-0.4-6.7     c0.9-2.7,3.4-4.7,6.2-5.1c2.2-0.3,4.6,0.5,6.2,2C451.3,35.6,451.6,40.7,449.1,43.9L449.1,43.9z M451.5,27.7     c-4.1-2.7-9.5-3.2-14.1-1.4c-3.2,1.3-6,3.9-7.3,7.1c-1.8,4.3-1.2,9.7,1.7,13.4c2.6,3.4,7,5.3,11.3,5.3c1.6,0,3.1-0.2,4.7-0.6     c2.3-0.8,4.6-2.1,6.2-3.9c3.3-3.6,4.1-9,2.6-13.5C455.6,31.5,453.7,29.3,451.5,27.7z"/>
        <path id="XMLID_30_" class="st4" d="M510.6,25.6c-4.2-0.7-8.3,2.5-9.3,6.5c-0.1-1.5,0.1-3-0.2-4.5c-0.4-1.2-1.7-1.8-2.8-1.8     c-2.1,0-4.2,0-6.3,0c0,1.8,0,3.6,0,5.5c1,0,2-0.2,2.9,0.3c0.1,0.5,0.2,1,0.2,1.5c0,6.2,0,12.3,0,18.5c2.1,0,4.2,0,6.3,0     c0-1.9,0-3.9,0-5.8c0-2.6-0.1-5.2,0.4-7.8c0.5-2.2,1.8-4.2,3.8-5.2c1.5-0.8,3.2-0.9,4.9-0.8v-0.1c0-1,0-2.1,0-3.1v-2.1     L510.6,25.6z"/>
        <path id="XMLID_29_" class="st4" d="M489.9,46.1c-0.8,0-1.7,0.1-2.5,0c-0.5-0.2-0.6-0.8-0.6-1.3c0-6.3,0-12.6,0-19     c-2.1,0-4.3,0-6.4,0c0,3.7,0,7.4,0,11.1c0.1,2.2-0.4,4.6-1.7,6.4c-1.5,2.3-4.5,3.4-7.1,2.6c-1.4-0.4-2.1-1.9-2.2-3.3     c-0.2-1.7-0.1-3.4-0.2-5.1c0-2.9,0-5.8,0-8.7c0-0.7-0.1-1.5-0.6-2.1c-0.6-0.7-1.6-1-2.5-1c-2.1,0-4.2,0-6.3,0c0,1.8,0,3.6,0,5.5     c1,0,2-0.1,3,0.3c0.3,1,0.2,2.1,0.2,3.1c0,2.7,0,5.4,0,8.1c0,2.3,0.4,4.7,1.9,6.6c1.3,1.7,3.3,2.6,5.4,2.7     c1.7,0.1,3.5,0.1,5.1-0.5c2.3-0.8,4.3-2.6,5.4-4.8c0,1.1-0.2,2.2,0.3,3.2c0.5,1.1,1.7,1.5,2.8,1.5c2.1,0,4.1,0,6.2,0     C489.9,49.8,490,47.9,489.9,46.1z"/>
        <path id="XMLID_28_" class="st4" d="M388.7,27.3c-2,1.3-3.3,3.5-4,5.8c0-1.5,0.1-3.1,0-4.6c-0.1-0.8-0.6-1.6-1.4-1.9     c-1.3-0.3-2.6-0.2-3.9-0.2c0,0.7,0,1.3,0,2c0.8,0,1.6,0,2.4,0c0.6,0.1,0.9,0.7,0.8,1.3c0,7.3,0,14.6,0,22c0.7,0,1.4,0,2.1,0     c0-3.6,0-7.1,0-10.7c0-2.5,0.4-5,1.4-7.2c0.8-1.9,2.1-3.6,3.9-4.6c1.3-0.7,2.7-0.8,4.1-0.7c0-0.7,0-1.4,0-2.1     C392.3,26,390.3,26.2,388.7,27.3z"/>
      </g>
    </g>
  </g>
  <rect id="XMLID_6_" x="326.3" y="28.1" class="st4" width="0.5" height="33.6"/>
</svg>